HIERARCHY
ROOT Hips
{
	OFFSET 0.000000 88.474243 0.000000
	CHANNELS 6 Xposition Yposition Zposition Zrotation Yrotation Xrotation 
	JOINT Hips_Spine
	{
		OFFSET 0.000000 0.000000 0.000000
		CHANNELS 3 Zrotation Yrotation Xrotation
		JOINT Spine
		{
			OFFSET 0.005100 8.711998 -0.691000
			CHANNELS 3 Zrotation Yrotation Xrotation
			JOINT Spine1
			{
				OFFSET -0.009200 8.660301 -1.275000
				CHANNELS 3 Zrotation Yrotation Xrotation
				JOINT Spine2
				{
					OFFSET 0.006300 9.852501 -1.857000
					CHANNELS 3 Zrotation Yrotation Xrotation
					JOINT Spine2_Neck
					{
						OFFSET 0.000000 0.000000 0.000000
						CHANNELS 3 Zrotation Yrotation Xrotation
						JOINT Neck
						{
							OFFSET 0.016300 11.420799 -0.263300
							CHANNELS 3 Zrotation Yrotation Xrotation
							End Site #name: Head
							{
								OFFSET -0.019200 9.262405 2.362500
							}
						}
					}
					JOINT Spine2_LeftShoulder
					{
						OFFSET 0.000000 0.000000 0.000000
						CHANNELS 3 Zrotation Yrotation Xrotation
						JOINT LeftShoulder
						{
							OFFSET 5.616900 6.732201 -0.345700
							CHANNELS 3 Zrotation Yrotation Xrotation
							JOINT LeftArm
							{
								OFFSET 10.664888 -0.183372 -2.440700
								CHANNELS 3 Zrotation Yrotation Xrotation
								JOINT LeftForeArm
								{
									OFFSET 27.459126 0.000000 0.000000
									CHANNELS 3 Zrotation Yrotation Xrotation
									End Site #name: LeftHand
									{
										OFFSET 21.306858 0.000000 0.000000
									}
								}
							}
						}
					}
					JOINT Spine2_RightShoulder
					{
						OFFSET 0.000000 0.000000 0.000000
						CHANNELS 3 Zrotation Yrotation Xrotation
						JOINT RightShoulder
						{
							OFFSET -5.580300 6.737503 -0.344400
							CHANNELS 3 Zrotation Yrotation Xrotation
							JOINT RightArm
							{
								OFFSET -10.679335 -0.188484 -2.383900
								CHANNELS 3 Zrotation Yrotation Xrotation
								JOINT RightForeArm
								{
									OFFSET -27.503529 0.000000 0.000000
									CHANNELS 3 Zrotation Yrotation Xrotation
									End Site #name: RightHand
									{
										OFFSET -21.306808 0.000000 0.000000
									}
								}
							}
						}
					}
				}
			}
		}
	}
	JOINT Hips_LeftUpLeg
	{
		OFFSET 0.000000 0.000000 0.000000
		CHANNELS 3 Zrotation Yrotation Xrotation
		JOINT LeftUpLeg
		{
			OFFSET 6.857700 -6.739601 0.312100
			CHANNELS 3 Zrotation Yrotation Xrotation
			JOINT LeftLeg
			{
				OFFSET -0.367590 -34.731552 -4.572400
				CHANNELS 3 Zrotation Yrotation Xrotation
				End Site #name: LeftFoot
				{
					OFFSET 0.367590 -34.656704 -6.067400
				}
			}
		}
	}
	JOINT Hips_RightUpLeg
	{
		OFFSET 0.000000 0.000000 0.000000
		CHANNELS 3 Zrotation Yrotation Xrotation
		JOINT RightUpLeg
		{
			OFFSET -6.876100 -6.733299 0.301000
			CHANNELS 3 Zrotation Yrotation Xrotation
			JOINT RightLeg
			{
				OFFSET 0.347353 -34.795158 -4.515900
				CHANNELS 3 Zrotation Yrotation Xrotation
				End Site #name: RightFoot
				{
					OFFSET -0.347353 -34.589367 -6.070300
				}
			}
		}
	}
}
MOTION
Frames: 10
Frame Time: 0.041667
-4.504680 -0.378070 -2.416638 -4.565846 17.089789 -8.460730 0.000000 -0.000000 -0.000000 7.029908 -0.223214 2.747447 3.004776 -0.094555 1.226427 0.000000 0.000000 0.000000 2.654999 -0.111991 1.152470 2.780537 0.992616 1.897712 2.671684 -0.087679 1.775912 -20.028662 1.640841 -0.222205 -57.273470 5.718195 32.274350 -0.904261 -25.082253 1.710895 2.463587 0.070873 1.154710 21.972181 11.362667 3.917273 51.063906 0.385068 6.960799 5.651960 86.644975 6.129016 -0.000000 -0.000000 -0.000000 6.730864 14.345386 -11.506097 5.894407 9.851694 22.451354 0.000000 -0.000000 0.000000 6.783327 -9.073629 -11.826051 -0.378025 0.276191 12.657244 
-4.875018 -0.430631 -2.412927 -4.672485 17.205854 -8.391639 0.000000 -0.000000 -0.000000 7.008411 -0.231952 3.122098 3.159789 -0.074571 1.281001 0.000000 0.000000 0.000000 2.781464 -0.083613 1.241003 2.910217 1.030560 2.012638 2.815239 -0.069038 1.910255 -19.822113 1.588804 -0.208968 -57.393535 6.349646 31.694836 -0.900809 -25.413384 1.718270 2.586722 0.093250 1.211392 21.882987 11.461652 3.928347 50.749498 0.124777 6.913655 8.441600 87.736169 8.912185 -0.000000 -0.000000 -0.000000 7.465153 14.669004 -11.950903 6.133428 10.326316 23.060467 0.000000 -0.000000 0.000000 7.188803 -9.023193 -12.162909 -0.997108 -1.323421 12.963750 
-5.190350 -0.482124 -2.390238 -4.669544 17.248061 -8.276286 0.000000 -0.000000 -0.000000 6.958810 -0.236009 3.464176 3.291599 -0.056015 1.340541 0.000000 0.000000 0.000000 2.895165 -0.059619 1.329983 3.014595 1.052292 2.133440 2.932540 -0.047200 2.047083 -19.648140 1.556297 -0.189880 -57.463718 6.924625 31.122925 -0.900399 -25.878107 1.725478 2.696860 0.112931 1.265654 21.802156 11.540425 3.932682 50.468116 -0.089805 6.846958 15.501007 88.749791 15.963233 -0.000000 -0.000000 -0.000000 8.119705 14.732026 -13.003043 6.515700 10.574205 24.921205 0.000000 -0.000000 0.000000 7.439230 -8.971238 -12.458783 -1.578169 -2.820044 13.266983 
-5.443108 -0.532123 -2.355147 -4.557024 17.202276 -8.083107 0.000000 -0.000000 -0.000000 6.882533 -0.232064 3.761199 3.411331 -0.045040 1.395050 0.000000 0.000000 0.000000 3.004939 -0.041270 1.407173 3.070885 1.054782 2.258425 3.038248 -0.031945 2.172571 -19.491446 1.513455 -0.167522 -57.501217 7.459197 30.636682 -0.903232 -26.293270 1.733937 2.792400 0.128499 1.316121 21.726168 11.613019 3.937504 50.237346 -0.266418 6.754114 51.511614 89.569833 51.966146 -0.000000 -0.000000 -0.000000 8.737946 14.350905 -14.452339 7.359615 10.035268 29.164768 0.000000 -0.000000 0.000000 7.545235 -8.908484 -12.768094 -2.008592 -4.145558 13.616204 
-5.616920 -0.582597 -2.308448 -4.358577 17.081379 -7.826025 0.000000 -0.000000 -0.000000 6.787016 -0.235546 4.025238 3.512177 -0.040343 1.445389 0.000000 0.000000 0.000000 3.097613 -0.027644 1.473365 3.101255 1.046116 2.377862 3.131850 -0.022401 2.278950 -19.376741 1.509138 -0.147678 -57.504578 7.917067 30.168405 -0.905905 -26.680930 1.742481 2.873258 0.135607 1.362197 21.632180 11.658847 3.930817 50.037213 -0.425811 6.667070 141.474990 89.455908 141.925942 -0.000000 -0.000000 -0.000000 9.172230 13.827267 -15.863235 8.556992 8.966752 34.361613 0.000000 -0.000000 0.000000 7.520245 -8.849224 -13.089728 -2.386613 -5.396298 13.984355 
-5.716448 -0.634870 -2.252172 -4.095154 16.863212 -7.541219 0.000000 -0.000000 -0.000000 6.678244 -0.251519 4.242542 3.601378 -0.043169 1.482512 0.000000 0.000000 0.000000 3.162893 -0.017754 1.527892 3.116705 1.034617 2.486696 3.212457 -0.019760 2.353654 -19.284117 1.502142 -0.131166 -57.503443 8.307424 29.722003 -0.912684 -27.041601 1.751982 2.945012 0.134072 1.396537 21.545645 11.691594 3.922579 49.858816 -0.545894 6.566359 159.159930 89.040720 159.611747 -0.000000 -0.000000 -0.000000 9.225366 13.390460 -17.073861 10.074965 8.080006 38.883964 0.000000 -0.000000 0.000000 7.379866 -8.823975 -13.387272 -2.786089 -6.643683 14.354892 
-5.747199 -0.683912 -2.186446 -3.785463 16.566096 -7.266760 0.000000 -0.000000 -0.000000 6.559872 -0.275748 4.414929 3.670895 -0.048849 1.512333 0.000000 0.000000 0.000000 3.217812 -0.011362 1.567155 3.120420 1.019978 2.581122 3.272835 -0.023937 2.380619 -19.204712 1.469964 -0.123091 -57.477962 8.642235 29.304395 -0.919747 -27.372502 1.760070 3.006217 0.127604 1.417520 21.476210 11.684826 3.914371 49.702680 -0.596657 6.451160 164.822398 88.688726 165.274823 -0.000000 -0.000000 -0.000000 8.844819 13.178412 -18.298137 10.913531 7.262046 42.113576 0.000000 -0.000000 0.000000 7.130297 -8.818319 -13.629758 -3.138278 -7.707196 14.702435 
-5.715397 -0.726087 -2.113364 -3.446525 16.258396 -7.026908 0.000000 -0.000000 -0.000000 6.430492 -0.303768 4.548438 3.721353 -0.054933 1.530945 0.000000 0.000000 0.000000 3.261717 -0.008008 1.588683 3.115732 1.005892 2.661956 3.322846 -0.029925 2.388489 -19.142107 1.415553 -0.116479 -57.425630 8.895433 28.901913 -0.925915 -27.670340 1.767056 3.057503 0.117846 1.424264 21.439709 11.662947 3.910718 49.573155 -0.575620 6.321912 167.277200 88.431838 167.729613 -0.000000 -0.000000 -0.000000 8.235911 12.986994 -19.280745 11.161587 6.621409 43.807882 0.000000 -0.000000 0.000000 6.778965 -8.820283 -13.804171 -3.241619 -8.348942 15.001286 
-5.627614 -0.759246 -2.034776 -3.095138 15.985981 -6.813338 0.000000 -0.000000 -0.000000 6.296359 -0.323796 4.653301 3.757601 -0.060906 1.535803 0.000000 0.000000 0.000000 3.293686 -0.006493 1.593189 3.102392 0.991483 2.727257 3.361250 -0.036533 2.376836 -19.093680 1.344736 -0.110249 -57.356169 9.053151 28.541897 -0.932723 -27.928250 1.774189 3.095311 0.107467 1.417485 21.420868 11.626363 3.907989 49.476651 -0.491424 6.188487 168.514209 88.251355 168.966989 -0.000000 -0.000000 -0.000000 7.605593 12.819577 -19.490555 11.043092 6.277964 44.020333 0.000000 -0.000000 0.000000 6.350397 -8.823669 -13.909463 -3.190386 -8.535293 15.245019 
-5.490704 -0.779645 -1.949390 -2.749463 15.764079 -6.627202 0.000000 -0.000000 -0.000000 6.177288 -0.329306 4.730232 3.778828 -0.067138 1.528681 0.000000 0.000000 0.000000 3.311534 -0.007395 1.579293 3.082505 0.973622 2.775916 3.386719 -0.044620 2.349233 -19.070668 1.266230 -0.106613 -57.230883 9.136386 28.201974 -0.942825 -28.135438 1.781973 3.119061 0.096045 1.397993 21.408491 11.588389 3.905774 49.402349 -0.339976 6.025328 168.990024 88.165222 169.441899 -0.000000 -0.000000 -0.000000 6.924731 12.702696 -19.093098 10.647502 6.228873 42.861023 0.000000 -0.000000 0.000000 5.871922 -8.841583 -13.943432 -3.135654 -8.683529 15.423586 
